<?xml version="1.0" encoding="UTF-8"?>
<svg width="141mm" height="47.5mm" version="1.1" viewBox="0 0 141 47.5" xmlns="http://www.w3.org/2000/svg" xmlns:cc="http://creativecommons.org/ns#" xmlns:dc="http://purl.org/dc/elements/1.1/" xmlns:rdf="http://www.w3.org/1999/02/22-rdf-syntax-ns#">
<title>PTC Creo logo</title>
<desc>A computer-aided design software suite developed by PTC Inc.</desc>
 <metadata>
  <rdf:RDF>
   <cc:Work rdf:about="">
    <dc:format>image/svg+xml</dc:format>
    <dc:type rdf:resource="http://purl.org/dc/dcmitype/StillImage"/>
    <dc:title/>
   </cc:Work>
  </rdf:RDF>
 </metadata>
 <g transform="translate(-172 62.7)">
  <g transform="matrix(2.78 0 0 -2.78 241 -31.6)">
   <path d="m0 0c0.436 0 0.822 0.123 1.16 0.368s0.581 0.563 0.736 0.954h1.1c-0.209-0.673-0.591-1.21-1.14-1.62-0.582-0.418-1.27-0.627-2.07-0.627-1 0-1.81 0.341-2.44 1.02-0.609 0.664-0.913 1.5-0.913 2.49 0 1 0.304 1.83 0.913 2.49 0.626 0.681 1.44 1.02 2.44 1.02 0.799 0 1.49-0.209 2.07-0.627 0.554-0.409 0.936-0.949 1.14-1.62h-1.1c-0.155 0.39-0.4 0.708-0.736 0.953-0.336 0.246-0.722 0.368-1.16 0.368s-0.807-0.068-1.11-0.204-0.561-0.322-0.77-0.559c-0.445-0.49-0.667-1.1-0.667-1.83s0.222-1.34 0.667-1.83c0.455-0.509 1.08-0.763 1.88-0.763" style="fill:#4e585a"/>
  </g>
  <g transform="matrix(2.78 0 0 -2.78 263 -48.5)">
   <path d="m0 0v-1.02h-0.123c-0.735 0-1.34-0.295-1.8-0.886-0.436-0.563-0.654-1.24-0.654-2.02v-3h-1.02v6.81h1.02v-1.68c0.218 0.708 0.69 1.23 1.42 1.57 0.3 0.145 0.663 0.218 1.09 0.218z" style="fill:#4e585a"/>
  </g>
  <g transform="matrix(2.78 0 0 -2.78 274 -45.9)">
   <path d="m0 0c-0.627 0-1.15-0.196-1.58-0.586-0.4-0.373-0.645-0.859-0.736-1.46h4.63c-0.091 0.599-0.337 1.08-0.736 1.46-0.428 0.39-0.954 0.586-1.58 0.586m0.082-5.18c0.917 0 1.58 0.381 1.98 1.14h1.12c-0.236-0.618-0.611-1.12-1.12-1.5-0.513-0.381-1.17-0.572-1.98-0.572-1.03 0-1.86 0.341-2.51 1.02-0.627 0.663-0.94 1.49-0.94 2.49 0 1.01 0.299 1.84 0.899 2.49 0.636 0.681 1.46 1.02 2.48 1.02s1.84-0.341 2.48-1.02c0.599-0.655 0.899-1.49 0.899-2.49v-0.409h-5.71c0.072-0.627 0.322-1.14 0.749-1.55 0.436-0.417 0.99-0.626 1.66-0.626" style="fill:#4e585a"/>
  </g>
  <g transform="matrix(2.78 0 0 -2.78 295 -31.6)">
   <path d="m0 0c0.736 0 1.32 0.254 1.74 0.763 0.409 0.482 0.614 1.09 0.614 1.83s-0.205 1.34-0.614 1.83c-0.427 0.509-1.01 0.763-1.74 0.763s-1.32-0.254-1.74-0.763c-0.409-0.481-0.613-1.09-0.613-1.83s0.204-1.34 0.613-1.83c0.427-0.509 1.01-0.763 1.74-0.763m0 6.1c1.02 0 1.84-0.341 2.48-1.02 0.6-0.654 0.9-1.48 0.9-2.49 0-1.01-0.3-1.84-0.9-2.49-0.636-0.681-1.46-1.02-2.48-1.02s-1.84 0.341-2.48 1.02c-0.599 0.655-0.899 1.49-0.899 2.49 0 1.01 0.3 1.84 0.899 2.49 0.636 0.681 1.46 1.02 2.48 1.02" style="fill:#4e585a"/>
  </g>
  <g transform="matrix(2.78 0 0 -2.78 310 -44.9)">
   <path d="m0 0c0.089 0 0.16 0.017 0.213 0.051s0.079 0.081 0.079 0.143c0 0.061-0.021 0.109-0.063 0.144-0.043 0.035-0.121 0.053-0.236 0.053h-0.27v-0.391zm0.512 0.219c0-0.072-0.022-0.136-0.064-0.192s-0.101-0.096-0.175-0.119c0.117-0.034 0.188-0.13 0.213-0.286 6e-3 -0.04 0.01-0.077 0.01-0.108v-0.15h-0.219v0.121c0 0.091-0.01 0.157-0.029 0.197-0.04 0.085-0.112 0.127-0.216 0.127h-0.309v-0.445h-0.222v1.21h0.515c0.171 0 0.297-0.033 0.376-0.098 0.08-0.066 0.12-0.153 0.12-0.261m-0.538-1.18c0.259 0 0.479 0.091 0.662 0.273 0.084 0.085 0.151 0.184 0.2 0.298 0.048 0.113 0.073 0.234 0.073 0.362s-0.025 0.249-0.073 0.362c-0.049 0.113-0.116 0.212-0.2 0.297-0.183 0.182-0.403 0.274-0.662 0.274-0.26 0-0.479-0.092-0.657-0.274-0.182-0.184-0.274-0.404-0.274-0.661 0-0.127 0.025-0.247 0.074-0.36 0.048-0.114 0.115-0.213 0.2-0.298 0.178-0.182 0.397-0.273 0.657-0.273m0 2.02c0.151 0 0.292-0.028 0.425-0.086 0.132-0.057 0.248-0.135 0.346-0.233 0.099-0.099 0.177-0.214 0.234-0.346 0.057-0.133 0.086-0.274 0.086-0.425 0-0.15-0.029-0.291-0.086-0.422-0.057-0.132-0.135-0.247-0.234-0.345-0.098-0.099-0.214-0.176-0.346-0.234-0.133-0.057-0.274-0.086-0.425-0.086-0.15 0-0.291 0.029-0.422 0.086-0.131 0.058-0.246 0.135-0.345 0.234-0.098 0.098-0.176 0.213-0.233 0.345-0.058 0.131-0.086 0.272-0.086 0.422 0 0.151 0.028 0.292 0.086 0.425 0.057 0.132 0.135 0.247 0.233 0.346 0.099 0.098 0.214 0.176 0.345 0.233 0.131 0.058 0.272 0.086 0.422 0.086" style="fill:#4e585a"/>
  </g>
  <g transform="matrix(2.78 0 0 -2.78 193 -40.4)">
   <path d="m0 0 6.97 4.02-6.97 4.02-6.98-4.03z" style="fill:#4e585a"/>
  </g>
  <g transform="matrix(2.78 0 0 -2.78 191 -37.6)">
   <path d="m0 0-6.97 4.02v-8.05l6.97-4.03z" style="fill:#4e585a"/>
  </g>
  <path d="m194-37.6v22.4l19.4-11.2v-22.4z" style="fill:#68bf4b"/>
 </g>
</svg>
